<mxfile host="app.diagrams.net" modified="2024-03-22T08:01:17.600Z" agent="Mozilla/5.0 (X11; Ubuntu; Linux x86_64; rv:124.0) Gecko/20100101 Firefox/124.0" version="24.0.7" etag="AVkZ8egmlsixis-n3Nbj" type="github">
  <diagram name="Page-1" id="q_jDSBzmuDMPmaGXyb2x">
    <mxGraphModel>
      <root>
        <mxCell id="0" />
        <mxCell id="1" parent="0" />
      </root>
    </mxGraphModel>
  </diagram>
</mxfile>
